<svg width="18.000000" height="18.000000" viewBox="0 0 18 18" fill="none" xmlns="http://www.w3.org/2000/svg" xmlns:xlink="http://www.w3.org/1999/xlink">
	<desc>
			Created with Pixso.
	</desc>
	<defs/>
	<path id="Vector" d="M2 18C1.44 18 0.97 17.8 0.58 17.41C0.19 17.02 0 16.54 0 16L0 2C0 1.45 0.19 0.97 0.58 0.58C0.97 0.19 1.44 0 2 0L16 0C16.54 0 17.02 0.19 17.41 0.58C17.8 0.97 18 1.45 18 2L18 16C18 16.54 17.8 17.02 17.41 17.41C17.02 17.8 16.54 18 16 18L2 18ZM3 14L15 14L11.25 9L8.25 13L6 10L3 14Z" fill="#73AFF4" fill-opacity="1.000000" fill-rule="nonzero"/>
</svg>
